<mxfile host="Electron" modified="2024-06-02T20:47:37.711Z" agent="Mozilla/5.0 (X11; Linux x86_64) AppleWebKit/537.36 (KHTML, like Gecko) draw.io/24.4.8 Chrome/124.0.6367.207 Electron/30.0.6 Safari/537.36" etag="5Ipn6ytouH863_JBSYvd" version="24.3.1" type="device">
  <diagram name="Page-1" id="GQfNGS07O6GRNznr4gRm">
    <mxGraphModel dx="1389" dy="650" grid="1" gridSize="10" guides="1" tooltips="1" connect="1" arrows="1" fold="1" page="0" pageScale="1" pageWidth="850" pageHeight="1100" math="0" shadow="0">
      <root>
        <mxCell id="0" />
        <mxCell id="1" parent="0" />
        <mxCell id="GPBS-PauX6jSTrfWhpsg-3" value="R" style="edgeStyle=none;rounded=0;orthogonalLoop=1;jettySize=auto;html=1;" edge="1" parent="1" source="GPBS-PauX6jSTrfWhpsg-1" target="GPBS-PauX6jSTrfWhpsg-2">
          <mxGeometry relative="1" as="geometry" />
        </mxCell>
        <mxCell id="_8cfk-A3GKT5n2tdEZO6-3" value="S" style="edgeStyle=none;rounded=0;orthogonalLoop=1;jettySize=auto;html=1;" edge="1" parent="1" source="GPBS-PauX6jSTrfWhpsg-1" target="_8cfk-A3GKT5n2tdEZO6-1">
          <mxGeometry relative="1" as="geometry" />
        </mxCell>
        <mxCell id="_8cfk-A3GKT5n2tdEZO6-4" value="!!T" style="edgeStyle=none;rounded=0;orthogonalLoop=1;jettySize=auto;html=1;" edge="1" parent="1" source="GPBS-PauX6jSTrfWhpsg-1" target="_8cfk-A3GKT5n2tdEZO6-2">
          <mxGeometry relative="1" as="geometry" />
        </mxCell>
        <mxCell id="GPBS-PauX6jSTrfWhpsg-1" value="A" style="ellipse;whiteSpace=wrap;html=1;aspect=fixed;" vertex="1" parent="1">
          <mxGeometry x="-40" width="120" height="120" as="geometry" />
        </mxCell>
        <mxCell id="GPBS-PauX6jSTrfWhpsg-2" value="B" style="ellipse;whiteSpace=wrap;html=1;aspect=fixed;" vertex="1" parent="1">
          <mxGeometry x="200" width="120" height="120" as="geometry" />
        </mxCell>
        <mxCell id="_8cfk-A3GKT5n2tdEZO6-1" value="!!C" style="ellipse;whiteSpace=wrap;html=1;aspect=fixed;" vertex="1" parent="1">
          <mxGeometry x="200" y="160" width="120" height="120" as="geometry" />
        </mxCell>
        <mxCell id="_8cfk-A3GKT5n2tdEZO6-2" value="D" style="ellipse;whiteSpace=wrap;html=1;aspect=fixed;" vertex="1" parent="1">
          <mxGeometry x="200" y="320" width="120" height="120" as="geometry" />
        </mxCell>
      </root>
    </mxGraphModel>
  </diagram>
</mxfile>
